<svg version="1.1" xmlns="http://www.w3.org/2000/svg" xmlns:xlink="http://www.w3.org/1999/xlink" width="70" height="47" viewBox="0,0,256,171.875"><defs><clipPath id="clip-1"><rect x="0" y="0" width="70" height="47" id="clip0_12_7" fill="none"></rect></clipPath></defs><g fill="none" fill-rule="nonzero" stroke="none" stroke-width="1" stroke-linecap="butt" stroke-linejoin="miter" stroke-miterlimit="10" stroke-dasharray="" stroke-dashoffset="0" font-family="none" font-weight="none" font-size="none" text-anchor="none" style="mix-blend-mode: normal"><g transform="translate(0,-0.00536) scale(3.65714,3.65714)"><g clip-path="url(#clip-1)"><path d="M40.6622,35.6965h4.0659v4.0949h-4.0659zM54.7167,35.6965h4.0658v4.0949h-4.0658zM51.3061,21.1735v-4.0929h-5.635v1.9936l2.102,2.1013z" fill="#ffffff"></path><path d="M65.24,43.3027v-8.6343h1.2931l1.2016,-1.1966l-14.2372,-14.3389h-1.7675v2.4851h-4.1417l-2.4675,-2.4851h-6.8366l-14.2217,14.3233l1.2017,1.2102h1.9036v8.6343h-3.7159c-5.5572,-5.3541 -7.035,-17.4977 -6.5158,-26.5315l0.0914,-0.1841h0.0447c2.4306,0 4.585,1.1868 5.9267,3.0159l0.0136,0.0195c1.0111,1.3768 1.6197,3.1099 1.6197,4.984c0,1.2925 -0.2878,2.5165 -0.805,3.6112l0.0214,-0.0509c1.0852,-0.2799 2.0939,-0.8019 2.9517,-1.5275l-0.0117,0.0097c0.8931,-0.7829 1.6089,-1.7498 2.099,-2.8353c0.49,-1.0855 0.743,-2.2643 0.7418,-3.4568c0,-1.8702 -0.6105,-3.5955 -1.6411,-4.9859l0.0156,0.0215c-0.8842,-1.2418 -2.1348,-2.1713 -3.5737,-2.6561c-1.439,-0.4849 -2.9931,-0.5004 -4.4413,-0.0444l0.0505,-0.0137c0.5153,-0.3231 1.1084,-0.609 1.7325,-0.8264l0.0623,-0.0196c0.8483,-0.3156 1.7459,-0.4754 2.6502,-0.472c2.1059,0 4.0134,0.848 5.4075,2.2208l-0.0019,-0.002c0.2066,-1.0984 0.1445,-2.2309 -0.1808,-3.2998l0.0136,0.049c-0.3224,-0.9525 -0.834,-1.82893 -1.5036,-2.5759c-0.6695,-0.74697 -1.483,-1.34885 -2.391,-1.76896c-0.908,-0.42012 -1.8913,-0.64969 -2.8902,-0.67472c-0.9989,-0.02503 -1.9924,0.155 -2.9199,0.52912l0.0486,-0.01763c-0.4692,0.16289 -0.9255,0.36124 -1.365,0.59338l0.0564,-0.02742c-0.1324,-0.61245 -0.3286,-1.20913 -0.5853,-1.78012l0.0233,0.05679c-1.7111,-3.86379 -5.635,-5.68896 -8.77138,-4.09292c-0.847,0.4361 -1.57478,1.07493 -2.11944,1.86042l-0.01167,0.01958c1.10387,0.10909 2.16719,0.47625 3.10529,1.07225c0.9381,0.59599 1.7251,1.40435 2.2983,2.36071l0.0175,0.03133c-0.7276,-0.36685 -1.4977,-0.64117 -2.2925,-0.81662l-0.0661,-0.01175c-4.82221,-1.04379 -9.4111,1.59408 -10.2336,5.90436c-0.21977,1.1824 -0.14697,2.4012 0.21195,3.5485l-0.01361,-0.0509c1.0783,-1.2329 2.47389,-2.1418 4.03271,-2.6263c1.55882,-0.4845 3.22025,-0.5258 4.8009,-0.1193l-0.06223,-0.0137c0.79528,0.1684 1.49918,0.4113 2.15838,0.7305l-0.0564,-0.0255c-1.5776,-0.2117 -3.18199,0.0554 -4.60803,0.7671c-1.42604,0.7116 -2.60889,1.8355 -3.39728,3.2279l-0.02139,0.0392c-0.82314,1.3966 -1.25521,2.9917 -1.25028,4.6158c0,3.0706 1.51084,5.7849 3.82667,7.4299l0.02917,0.0196c0.9965,0.6738 2.13345,1.108 3.32305,1.269l0.04084,0.0039c-0.85789,-1.4316 -1.30919,-3.0729 -1.30473,-4.7451c0,-1.7096 0.46084,-3.3115 1.26584,-4.6843l-0.02334,0.0431c0.59804,-1.0484 1.41798,-1.9513 2.40168,-2.6445c0.9837,-0.6931 2.1068,-1.1596 3.2897,-1.3662l0.0486,-0.0078c-2.7553,12.6371 -3.5175,21.4418 -1.2444,26.8997h-6.6228v3.6816h62.51v-3.6816h-4.2175zM49.7817,34.8681h13.9339v8.4346h-13.9339zM28.6631,33.1957l9.625,-9.6937l9.625,9.6937v10.107h-10.5681v-7.6062h-5.3453v7.6062h-3.3483v-10.107z" fill="#ffffff"></path></g></g></g></svg>